<?xml version="1.0" encoding="UTF-8" standalone="no"?>
<!-- Created with Inkscape (http://www.inkscape.org/) -->

<svg
   width="190.5mm"
   height="63.5mm"
   viewBox="0 0 190.5 63.5"
   version="1.1"
   id="svg1"
   xmlns="http://www.w3.org/2000/svg"
   xmlns:svg="http://www.w3.org/2000/svg">
  <defs
     id="defs1" />
  <g
     id="layer1"
     transform="translate(-2.9680741,-141.53245)">
    <path
       id="path55"
       style="display:inline;fill:#562645;fill-opacity:1;stroke-width:0.99999;paint-order:stroke markers fill"
       d="m 49.140529,141.54713 c -15.23681,0.44446 -30.635672,10.29251 -46.1721379,13.10978 v 10.70523 8.60609 1.77786 8.92673 20.35518 h 28.5761779 95.248891 66.67461 v -20.35518 -9.01563 -1.68896 -8.60609 -10.70523 c -9.47533,1.71436 -19.00254,0.81908 -28.57522,-6.44029 -6.8004,-5.14307 -13.63426,-6.86443 -20.50248,-6.66949 -24.52926,0.69844 -49.477372,25.82526 -74.746092,6.66949 -6.800399,-5.14307 -13.635532,-6.86443 -20.503749,-6.66949 z"
       clip-path="none" />
    <path
       id="path67"
       style="display:inline;fill:#733367;fill-opacity:1;stroke-width:0.99999;paint-order:stroke markers fill"
       d="m 71.097093,158.13706 c -4.726936,-0.12699 -9.437551,0.6413 -14.132292,2.81282 -0.2921,0.12699 -0.59055,0.25398 -0.883284,0.44447 h -3.18e-4 c -2.888612,-0.50796 -5.782939,-0.6413 -8.683426,-0.44447 -10.152179,0.74924 -20.375542,5.40341 -30.663103,9.09182 h -3.81e-4 -3.18e-4 c -4.601205,-1.2445 -9.1901549,-2.9525 -13.7658969,-4.67956 v 8.60609 1.77786 8.92673 20.35518 h 28.5761139 95.248892 66.67468 v -20.35518 -9.01563 -1.68896 -8.60609 c -9.09358,-3.43508 -18.13527,-6.96983 -27.12114,-7.22508 -4.72694,-0.12699 -9.43755,0.6413 -14.13236,2.81282 -0.2921,0.12699 -0.59055,0.25398 -0.88328,0.44447 v 0 c -2.88861,-0.50796 -5.78294,-0.6413 -8.68336,-0.44447 -10.15218,0.74924 -20.37561,5.40341 -30.66311,9.09182 h -3.8e-4 -3.2e-4 C 98.238363,166.31456 84.604101,158.52247 71.096458,158.13833 Z"
       clip-path="none" />
    <path
       id="path57"
       style="display:inline;fill:#844686;fill-opacity:1;stroke-width:0.99999;paint-order:stroke markers fill"
       d="m 56.081517,161.37339 c -1.831974,0.91433 -3.661407,2.05088 -5.4883,3.43507 -7.770487,5.89232 -15.510939,7.59335 -23.217927,7.10698 -3.554091,-0.25398 -7.101007,-0.91432 -10.640747,-1.8731 -4.576441,1.64452 -9.1652639,3.09221 -13.7662789,3.93033 v 1.77786 8.92674 20.35518 h 28.5761779 95.248888 66.67462 v -20.35518 -9.01564 -1.68896 c -7.04951,1.27625 -14.1269,1.10481 -21.23108,-2.05723 -2.44475,-1.08576 -4.89331,-2.52709 -7.34415,-4.38749 -4.50532,-3.40968 -9.02613,-5.31452 -13.56149,-6.15265 -1.83197,0.91433 -3.6614,2.05087 -5.4883,3.43506 -7.77048,5.89233 -15.51094,7.59335 -23.21792,7.10698 -3.5541,-0.25398 -7.10114,-0.91432 -10.64075,-1.8731 -11.5876,4.15892 -23.256473,7.09619 -34.997358,1.8731 -2.444747,-1.08576 -4.892035,-2.52709 -7.342878,-4.38748 C 65.138703,164.12018 60.617,162.21533 56.081263,161.3772 Z M 25.17343,177.53854 c 2.127248,0.98417 4.250686,2.25407 6.371139,3.86049 2.216148,1.68262 4.430391,3.02235 6.641776,4.06367 -2.211703,-1.04767 -4.42531,-2.38105 -6.641776,-4.06367 -2.120263,-1.60642 -4.244335,-2.87632 -6.371139,-3.86049 z m 95.24984,0 c 2.12725,0.98417 4.25005,2.25407 6.37019,3.86049 -2.12026,-1.60642 -4.24307,-2.87632 -6.37019,-3.86049 z"
       clip-path="none" />
    <path
       id="path63"
       style="display:inline;fill:#9978cb;fill-opacity:1;stroke-width:0.99999;paint-order:stroke markers fill"
       d="m 11.040757,174.72826 c -2.6860469,0.0635 -5.3765389,0.44446 -8.0723659,1.01592 v 8.92674 20.35518 h 28.5761779 95.248891 66.67461 v -20.35518 -9.01564 c -4.54532,0.96513 -9.1043,2.5017 -13.67655,4.19067 -3.91096,-1.16196 -7.81163,-2.01914 -11.70215,-2.30487 -7.4547,-0.57145 -14.87105,1.00322 -22.24618,6.57934 -1.88849,1.42863 -3.77444,2.61599 -5.65912,3.58111 -4.45325,-0.99687 -8.91685,-3.00331 -13.39036,-6.39203 v 0.0635 c -2.12026,-1.60643 -4.24306,-2.87631 -6.37018,-3.86049 -4.69455,-2.17152 -9.40593,-2.94616 -14.13268,-2.81282 -7.169838,0.19049 -14.375303,2.49535 -21.614232,5.15578 -3.956046,-1.18101 -7.901869,-2.05723 -11.836833,-2.3493 -7.454639,-0.57146 -14.87105,1.00321 -22.246187,6.57933 -1.928493,1.46038 -3.855716,2.66678 -5.780399,3.64461 -4.412611,-1.00322 -8.835636,-3.00331 -13.268376,-6.36346 -2.120263,-1.60643 -4.244335,-2.87631 -6.371139,-3.86048 -4.69455,-2.17153 -9.405928,-2.94617 -14.132673,-2.81283 z"
       clip-path="none" />
    <path
       d="m 2.9684551,184.67219 c 13.3220959,5.03514 26.7546819,9.85059 40.2820739,3.83509 0.520699,-0.25398 1.041399,-0.50796 1.562098,-0.74289 3.322317,0.75559 6.639173,0.95242 9.949678,0.74289 10.029625,-0.63495 20.003115,-4.97165 29.913995,-8.61943 17.74633,5.29547 35.6996,16.68137 53.82388,8.61943 0.5588,-0.25398 1.12204,-0.50796 1.68338,-0.80638 3.28168,0.73654 6.55758,0.92066 9.82757,0.71749 9.98448,-0.63495 19.91307,-4.93355 29.78014,-8.5699 4.54532,1.34609 9.10468,3.09855 13.67668,4.8256 v 20.35518 h -66.67468 v 0 H 31.544442 2.9682641 Z"
       style="display:inline;fill:#cfbdf3;fill-opacity:1;stroke-width:0.99999;paint-order:stroke markers fill"
       id="path59"
       clip-path="none" />
  </g>
</svg>
